<mxfile host="app.diagrams.net" modified="2023-06-25T14:15:18.036Z" agent="Mozilla/5.0 (Windows NT 10.0; Win64; x64) AppleWebKit/537.36 (KHTML, like Gecko) Chrome/114.0.0.0 Safari/537.36" etag="r8MT9OThZNczXiBpj1dx" version="21.3.2" type="device">
  <diagram id="JDuSbwvNvsqv4K-SNTGC" name="Page-1">
    <mxGraphModel dx="819" dy="404" grid="1" gridSize="10" guides="1" tooltips="1" connect="1" arrows="1" fold="1" page="1" pageScale="1" pageWidth="827" pageHeight="1169" math="0" shadow="0">
      <root>
        <mxCell id="0" />
        <mxCell id="1" parent="0" />
        <mxCell id="Mpjf6O6Qixc7j4ah_JBj-3" value="" style="rounded=0;whiteSpace=wrap;html=1;" parent="1" vertex="1">
          <mxGeometry x="80" y="400" width="86" height="125" as="geometry" />
        </mxCell>
        <mxCell id="Mpjf6O6Qixc7j4ah_JBj-1" value="" style="rhombus;whiteSpace=wrap;html=1;fillColor=none;strokeWidth=2;" parent="1" vertex="1">
          <mxGeometry x="240" y="280" width="40" height="80" as="geometry" />
        </mxCell>
        <mxCell id="Mpjf6O6Qixc7j4ah_JBj-2" value="" style="rhombus;whiteSpace=wrap;html=1;fillColor=none;strokeWidth=2;" parent="1" vertex="1">
          <mxGeometry x="320" y="300" width="70" height="40" as="geometry" />
        </mxCell>
        <mxCell id="Mpjf6O6Qixc7j4ah_JBj-4" value="" style="ellipse;whiteSpace=wrap;html=1;fillColor=none;strokeWidth=2;" parent="1" vertex="1">
          <mxGeometry x="440" y="280" width="40" height="80" as="geometry" />
        </mxCell>
        <mxCell id="Mpjf6O6Qixc7j4ah_JBj-5" value="" style="shape=delay;whiteSpace=wrap;html=1;rotation=-90;fillColor=none;strokeWidth=2;" parent="1" vertex="1">
          <mxGeometry x="590" y="300" width="60" height="40" as="geometry" />
        </mxCell>
        <mxCell id="Mpjf6O6Qixc7j4ah_JBj-6" value="" style="verticalLabelPosition=bottom;verticalAlign=top;html=1;shape=mxgraph.flowchart.summing_function;fillColor=none;strokeWidth=2;" parent="1" vertex="1">
          <mxGeometry x="520" y="280" width="40" height="80" as="geometry" />
        </mxCell>
        <mxCell id="Mpjf6O6Qixc7j4ah_JBj-7" value="" style="verticalLabelPosition=bottom;verticalAlign=top;html=1;shape=mxgraph.basic.4_point_star_2;dx=0.8;fillColor=none;strokeWidth=2;" parent="1" vertex="1">
          <mxGeometry x="680" y="285" width="60" height="70" as="geometry" />
        </mxCell>
        <mxCell id="rFG7xaAI6keBBEubjqqR-1" value="" style="shape=sumEllipse;perimeter=ellipsePerimeter;whiteSpace=wrap;html=1;backgroundOutline=1;strokeWidth=2;fillColor=none;" parent="1" vertex="1">
          <mxGeometry x="160" y="280" width="40" height="80" as="geometry" />
        </mxCell>
        <mxCell id="tUX0cWqL5ncLScQz2qMJ-3" value="" style="ellipse;whiteSpace=wrap;html=1;strokeWidth=2;fillColor=none;" vertex="1" parent="1">
          <mxGeometry x="780" y="300" width="40" height="40" as="geometry" />
        </mxCell>
        <mxCell id="tUX0cWqL5ncLScQz2qMJ-4" value="" style="ellipse;whiteSpace=wrap;html=1;strokeWidth=2;fillColor=none;" vertex="1" parent="1">
          <mxGeometry x="785" y="305" width="30" height="30" as="geometry" />
        </mxCell>
      </root>
    </mxGraphModel>
  </diagram>
</mxfile>
